{
  "accessors": [
    {
      "bufferView": 2,
      "componentType": 5126,
      "count": 1992,
      "max": [
        253.30279541015625,
        318.85198974609375,
        200.6485137939453
      ],
      "min": [
        -162.9784393310547,
        -318.92950439453125,
        -15.531517028808594
      ],
      "type": "VEC3"
    },
    {
      "bufferView": 2,
      "byteOffset": 23904,
      "componentType": 5126,
      "count": 1992,
      "max": [
        1.0,
        0.9984303712844849,
        1.0
      ],
      "min": [
        -0.9984307885169983,
        -0.9984302520751953,
        -1.0
      ],
      "type": "VEC3"
    },
    {
      "bufferView": 3,
      "componentType": 5126,
      "count": 1992,
      "max": [
        0.9984304308891296,
        1.0,
        1.0,
        1.0
      ],
      "min": [
        -0.9984302520751953,
        -1.0,
        -1.0,
        -1.0
      ],
      "type": "VEC4"
    },
    {
      "bufferView": 1,
      "componentType": 5126,
      "count": 1992,
      "max": [
        0.8691819906234741,
        0.9923440217971802
      ],
      "min": [
        0.004126999992877245,
        0.004120999947190285
      ],
      "type": "VEC2"
    },
    {
      "bufferView": 0,
      "componentType": 5125,
      "count": 6900,
      "type": "SCALAR"
    },
    {
      "bufferView": 2,
      "byteOffset": 47808,
      "componentType": 5126,
      "count": 3474,
      "max": [
        253.30279541015625,
        318.85198974609375,
        203.23817443847656
      ],
      "min": [
        -162.9784393310547,
        -318.92950439453125,
        -17.611949920654297
      ],
      "type": "VEC3"
    },
    {
      "bufferView": 2,
      "byteOffset": 89496,
      "componentType": 5126,
      "count": 3474,
      "max": [
        0.9999940991401672,
        0.9967526197433472,
        1.0
      ],
      "min": [
        -1.0,
        -0.9967525005340576,
        -1.0
      ],
      "type": "VEC3"
    },
    {
      "bufferView": 3,
      "byteOffset": 31872,
      "componentType": 5126,
      "count": 3474,
      "max": [
        0.9965261220932007,
        1.0,
        1.0,
        1.0
      ],
      "min": [
        -0.9999418258666992,
        -1.0,
        -1.0,
        -1.0
      ],
      "type": "VEC4"
    },
    {
      "bufferView": 1,
      "byteOffset": 15936,
      "componentType": 5126,
      "count": 3474,
      "max": [
        0.9232820272445679,
        0.9980000257492065
      ],
      "min": [
        0.0020000000949949026,
        0.0020000000949949026
      ],
      "type": "VEC2"
    },
    {
      "bufferView": 0,
      "byteOffset": 27600,
      "componentType": 5125,
      "count": 12966,
      "type": "SCALAR"
    },
    {
      "bufferView": 2,
      "byteOffset": 131184,
      "componentType": 5126,
      "count": 16112,
      "max": [
        501.4383544921875,
        318.85198974609375,
        215.9810333251953
      ],
      "min": [
        -162.9784393310547,
        -318.92950439453125,
        -50.34405517578125
      ],
      "type": "VEC3"
    },
    {
      "bufferView": 2,
      "byteOffset": 324528,
      "componentType": 5126,
      "count": 16112,
      "max": [
        1.0,
        1.0,
        1.0
      ],
      "min": [
        -1.0,
        -1.0,
        -1.0
      ],
      "type": "VEC3"
    },
    {
      "bufferView": 3,
      "byteOffset": 87456,
      "componentType": 5126,
      "count": 16112,
      "max": [
        1.0,
        1.0,
        1.0,
        1.0
      ],
      "min": [
        -1.0,
        -1.0,
        -1.0,
        -1.0
      ],
      "type": "VEC4"
    },
    {
      "bufferView": 1,
      "byteOffset": 43728,
      "componentType": 5126,
      "count": 16112,
      "max": [
        0.9914270043373108,
        0.995369017124176
      ],
      "min": [
        0.0020000000949949026,
        0.0020000000949949026
      ],
      "type": "VEC2"
    },
    {
      "bufferView": 0,
      "byteOffset": 79464,
      "componentType": 5125,
      "count": 62544,
      "type": "SCALAR"
    }
  ],
  "asset": {
    "extras": {
      "author": "irs1182 (https://sketchfab.com/irs1182)",
      "license": "CC-BY-4.0 (http://creativecommons.org/licenses/by/4.0/)",
      "source": "https://sketchfab.com/3d-models/helicopter-91366449ce6842f784748a914e29d641",
      "title": "Helicopter"
    },
    "generator": "Sketchfab-12.65.0",
    "version": "2.0"
  },
  "bufferViews": [
    {
      "buffer": 0,
      "byteLength": 329640,
      "name": "floatBufferViews",
      "target": 34963
    },
    {
      "buffer": 0,
      "byteLength": 172624,
      "byteOffset": 329640,
      "byteStride": 8,
      "name": "floatBufferViews",
      "target": 34962
    },
    {
      "buffer": 0,
      "byteLength": 517872,
      "byteOffset": 502264,
      "byteStride": 12,
      "name": "floatBufferViews",
      "target": 34962
    },
    {
      "buffer": 0,
      "byteLength": 345248,
      "byteOffset": 1020136,
      "byteStride": 16,
      "name": "floatBufferViews",
      "target": 34962
    }
  ],
  "buffers": [
    {
      "byteLength": 1365384,
      "uri": "scene.bin"
    }
  ],
  "images": [
    {
      "uri": "textures/wire_224086086_baseColor.jpeg"
    },
    {
      "uri": "textures/wire_224086086_metallicRoughness.png"
    },
    {
      "uri": "textures/wire_224086086_emissive.jpeg"
    },
    {
      "uri": "textures/wire_224086086_normal.png"
    }
  ],
  "materials": [
    {
      "doubleSided": true,
      "emissiveFactor": [
        1.0,
        1.0,
        1.0
      ],
      "emissiveTexture": {
        "index": 2
      },
      "name": "wire_224086086",
      "normalTexture": {
        "index": 3
      },
      "occlusionTexture": {
        "index": 1
      },
      "pbrMetallicRoughness": {
        "baseColorTexture": {
          "index": 0
        },
        "metallicRoughnessTexture": {
          "index": 1
        }
      }
    }
  ],
  "meshes": [
    {
      "name": "Object_0",
      "primitives": [
        {
          "attributes": {
            "NORMAL": 1,
            "POSITION": 0,
            "TANGENT": 2,
            "TEXCOORD_0": 3
          },
          "indices": 4,
          "material": 0,
          "mode": 4
        }
      ]
    },
    {
      "name": "Object_1",
      "primitives": [
        {
          "attributes": {
            "NORMAL": 6,
            "POSITION": 5,
            "TANGENT": 7,
            "TEXCOORD_0": 8
          },
          "indices": 9,
          "material": 0,
          "mode": 4
        }
      ]
    },
    {
      "name": "Object_2",
      "primitives": [
        {
          "attributes": {
            "NORMAL": 11,
            "POSITION": 10,
            "TANGENT": 12,
            "TEXCOORD_0": 13
          },
          "indices": 14,
          "material": 0,
          "mode": 4
        }
      ]
    }
  ],
  "nodes": [
    {
      "children": [
        1
      ],
      "matrix": [
        1.842805027961731,
        0.0,
        0.0,
        0.0,
        0.0,
        4.091849143876238e-16,
        -1.842805027961731,
        0.0,
        0.0,
        1.842805027961731,
        4.091849143876238e-16,
        0.0,
        0.0,
        0.0,
        0.0,
        1.0
      ],
      "name": "Sketchfab_model"
    },
    {
      "children": [
        2,
        3,
        4
      ],
      "name": "Copter_2.obj.cleaner.materialmerger.gles"
    },
    {
      "mesh": 0,
      "name": "Object_2"
    },
    {
      "mesh": 1,
      "name": "Object_3"
    },
    {
      "mesh": 2,
      "name": "Object_4"
    }
  ],
  "samplers": [
    {
      "magFilter": 9729,
      "minFilter": 9987,
      "wrapS": 10497,
      "wrapT": 10497
    }
  ],
  "scene": 0,
  "scenes": [
    {
      "name": "Sketchfab_Scene",
      "nodes": [
        0
      ]
    }
  ],
  "textures": [
    {
      "sampler": 0,
      "source": 0
    },
    {
      "sampler": 0,
      "source": 1
    },
    {
      "sampler": 0,
      "source": 2
    },
    {
      "sampler": 0,
      "source": 3
    }
  ]
}
